<!-- icon666.com - MILLIONS vector ICONS FREE --><svg fill="none" viewBox="0 0 24 24" xmlns="http://www.w3.org/2000/svg"><g clip-rule="evenodd" fill-rule="evenodd"><path d="m1.5 6.75c0-1.24264 1.00736-2.25 2.25-2.25h16.5c1.2426 0 2.25 1.00736 2.25 2.25s-1.0074 2.25-2.25 2.25h-16.5c-1.24264 0-2.25-1.00736-2.25-2.25zm0 5.5c0-1.2426 1.00736-2.25 2.25-2.25h16.5c1.2426 0 2.25 1.0074 2.25 2.25s-1.0074 2.25-2.25 2.25h-16.5c-1.24264 0-2.25-1.0074-2.25-2.25zm0 5.5c0-1.2426 1.00736-2.25 2.25-2.25h16.5c1.2426 0 2.25 1.0074 2.25 2.25s-1.0074 2.25-2.25 2.25h-16.5c-1.24264 0-2.25-1.0074-2.25-2.25z" fill="#fecc6d" style="fill: rgb(112, 112, 112);"></path><path d="m1.5 6.75c0-1.24264 1.00736-2.25 2.25-2.25h16.5c1.2426 0 2.25 1.00736 2.25 2.25s-1.0074 2.25-2.25 2.25h-16.5c-1.24264 0-2.25-1.00736-2.25-2.25zm0 5.5c0-1.2426 1.00736-2.25 2.25-2.25h16.5c1.2426 0 2.25 1.0074 2.25 2.25s-1.0074 2.25-2.25 2.25h-16.5c-1.24264 0-2.25-1.0074-2.25-2.25zm0 5.5c0-1.2426 1.00736-2.25 2.25-2.25h16.5c1.2426 0 2.25 1.0074 2.25 2.25s-1.0074 2.25-2.25 2.25h-16.5c-1.24264 0-2.25-1.0074-2.25-2.25zm1.5-11c0-.41421.33579-.75.75-.75h16.5c.4142 0 .75.33579.75.75s-.3358.75-.75.75h-16.5c-.41421 0-.75-.33579-.75-.75zm0 5.5c0-.4142.33579-.75.75-.75h16.5c.4142 0 .75.3358.75.75s-.3358.75-.75.75h-16.5c-.41421 0-.75-.3358-.75-.75zm.75 4.75c-.41421 0-.75.3358-.75.75s.33579.75.75.75h16.5c.4142 0 .75-.3358.75-.75s-.3358-.75-.75-.75z" fill="#000"></path></g></svg>